<?xml version="1.0" standalone="no"?><!DOCTYPE svg PUBLIC "-//W3C//DTD SVG 1.1//EN" "http://www.w3.org/Graphics/SVG/1.1/DTD/svg11.dtd"><svg t="1600627058724" class="icon" viewBox="0 0 1024 1024" version="1.1" xmlns="http://www.w3.org/2000/svg" p-id="3295" xmlns:xlink="http://www.w3.org/1999/xlink" width="200" height="200"><defs><style type="text/css"></style></defs><path d="M609.090519 356.96514c0-21.39791-17.598281-38.796211-39.396153-38.796211H283.922273c-10.898936 0-20.697979 4.29958-27.897275 11.398887-7.099307 6.999316-11.498877 16.698369-11.498878 27.397324 0 21.39791 17.598281 38.796211 39.396153 38.796211h285.772093c10.898936 0 20.697979-4.29958 27.897275-11.398886 7.099307-6.999316 11.498877-16.698369 11.498878-27.397325zM609.090519 962.006054c0-21.39791-17.598281-38.796211-39.396153-38.796211H283.922273c-10.898936 0-20.697979 4.29958-27.897275 11.398887-7.099307 6.999316-11.498877 16.698369-11.498878 27.397324 0 21.39791 17.598281 38.796211 39.396153 38.796211h285.772093c10.898936 0 20.697979-4.29958 27.897275-11.398886 7.099307-6.999316 11.498877-16.698369 11.498878-27.397325z" fill="#cdcdcd" p-id="3296"></path><path d="M570.294307 930.909091h-286.971975V395.761351h286.971975z" fill="#cdcdcd" p-id="3297"></path><path d="M570.294307 482.152915v362.364613c-6.399375 0.699932-12.79875 1.099893-19.398105 1.099892-96.390587 0-174.482961-81.592032-174.482961-182.282199 0-100.690167 78.092374-182.282199 174.482961-182.282199 6.499365 0 12.998731 0.399961 19.398105 1.099893z" fill="#cdcdcd" p-id="3298"></path><path d="M570.294307 496.551509c-63.69378 26.797383-108.589396 91.391075-108.589395 166.783712s44.895616 139.886339 108.589395 166.783713V496.551509z" fill="#cdcdcd" p-id="3299"></path><path d="M430.507958 147.385607v-123.987892c-35.396543 8.099209-61.893956 39.596133-61.893955 77.192462v46.89542c-36.096475 4.799531-68.493311 22.497803-92.990919 47.995313-28.897178 30.197051-46.79543 71.193048-46.79543 114.988771h341.266673c0.19998-80.8921-60.794063-152.585099-139.586369-163.084074z" fill="#cdcdcd" p-id="3300"></path><path d="M209.629528 457.755297c-10.698955 0-19.398106 8.69915-19.398105 19.398106s8.69915 19.398106 19.398105 19.398106 19.398106-8.69915 19.398106-19.398106c-0.09999-10.698955-8.69915-19.398106-19.398106-19.398106zM209.629528 543.146958c-10.698955 0-19.398106 8.899131-19.398105 19.898057v278.272825c0 10.998926 8.69915 19.898057 19.398105 19.898057s19.398106-8.899131 19.398106-19.898057V562.945025c-0.09999-10.898936-8.69915-19.798067-19.398106-19.798067z" p-id="3301" fill="#cdcdcd"></path><path d="M614.789962 394.461478c11.298897-11.298897 17.498291-26.397422 17.498291-42.395859 0-26.397422-17.09833-48.795235-40.696026-56.794454-7.199297-78.492335-64.493702-146.185724-138.786446-164.383947V20.098037c0-10.998926-8.899131-19.998047-19.898057-19.998047h-79.792208c-54.994629 0-99.690265 44.895616-99.690265 99.990236V130.987208c-32.696807 7.999219-63.293819 25.797481-87.391465 51.294991-29.297139 30.896983-47.495362 71.293038-51.394981 112.988966-8.59916 2.899717-16.598379 7.799238-23.197735 14.398594C80.042183 320.968655 73.842789 336.067181 73.842789 352.065619c0 26.097451 16.698369 48.295284 39.896104 56.594473v498.751294c-8.29919 2.899717-15.898447 7.699248-22.397813 14.198613C80.042183 932.908896 73.842789 948.007421 73.842789 964.005859c0 33.096768 26.797383 59.994141 59.794161 59.994141h438.857142c15.998438 0 30.996973-6.199395 42.29587-17.598281s17.498291-26.397422 17.498291-42.39586c0-26.097451-16.698369-48.295284-39.896104-56.594473v-70.593107-428.058197c8.39918-2.999707 15.998438-7.799238 22.397813-14.298604zM293.221365 100.090226c0-33.096768 26.797383-59.994141 59.794161-59.994142h59.794161v85.991603H293.221365v-25.997461z m-98.390391 109.689288c22.097842-23.297725 50.89503-38.39625 81.09208-42.49585 5.699443-0.799922 11.498877-1.199883 17.298311-1.199883h119.688312c5.699443 0 11.598867 0.399961 17.298311 1.199883 62.193926 8.39918 112.189044 61.394004 120.988184 124.787813H155.03486c4.29958-30.397032 18.298213-59.59418 39.796114-82.291963zM119.538326 337.966995c3.799629-3.799629 8.799141-5.899424 14.098624-5.899423h438.857142c10.998926 0 19.898057 8.999121 19.898057 19.998047 0 5.299482-2.099795 10.398984-5.899424 14.098623s-8.799141 5.899424-14.098623 5.899424H133.63695c-10.998926 0-19.898057-8.999121-19.898057-19.998047 0-5.299482 2.099795-10.298994 5.799433-14.098624z m432.957719 480.05312c-87.991407 0-159.584416-71.792989-159.584415-159.984376s71.593008-159.984377 159.584415-159.984377v319.968753z m-199.380529-159.984376c0 110.28923 89.491261 199.980471 199.48052 199.98047v45.995509h-398.961039v-491.951958h398.961039v45.995508c-109.989259 0-199.480519 89.691241-199.48052 199.980471z m233.4772 320.168733c-3.799629 3.799629-8.799141 5.899424-14.098624 5.899424H133.63695c-10.998926 0-19.898057-8.999121-19.898057-19.998047 0-5.299482 2.099795-10.398984 5.799433-14.098623 3.799629-3.799629 8.799141-5.899424 14.098624-5.899424h438.857142c10.998926 0 19.898057 8.999121 19.898057 19.998047 0 5.299482-1.999805 10.298994-5.799433 14.098623zM932.958891 155.384826l-317.169027-38.796212c-10.898936-1.299873-20.797969 6.199395-22.097842 16.79836-1.399863 10.598965 6.299385 20.298018 17.198321 21.597891l317.169026 38.796211c0.799922 0.09999 1.699834 0.19998 2.499756 0.199981 9.899033 0 18.398203-7.199297 19.598086-16.99834 1.399863-10.598965-6.299385-20.198028-17.19832-21.597891zM613.390099 77.692413c0.799922 0 1.599844-0.09999 2.499756-0.199981L932.958891 38.796211c10.898936-1.299873 18.598184-10.998926 17.19832-21.597891S938.958305-1.099893 928.059369 0.299971L610.890343 39.096182c-10.898936 1.299873-18.598184 10.998926-17.198321 21.597891 1.299873 9.799043 9.799043 16.99834 19.698077 16.99834z" p-id="3302" fill="#cdcdcd"></path></svg>